<?xml version="1.0" encoding="UTF-8" standalone="no"?>
<svg
   xmlns:dc="http://purl.org/dc/elements/1.1/"
   xmlns:cc="http://creativecommons.org/ns#"
   xmlns:rdf="http://www.w3.org/1999/02/22-rdf-syntax-ns#"
   xmlns:svg="http://www.w3.org/2000/svg"
   xmlns="http://www.w3.org/2000/svg"
   xmlns:sodipodi="http://sodipodi.sourceforge.net/DTD/sodipodi-0.dtd"
   xmlns:inkscape="http://www.inkscape.org/namespaces/inkscape"
   version="1.1"
   width="45"
   height="45"
   id="svg3060"
   inkscape:version="0.48.4 r9939"
   sodipodi:docname="Chess_rlt45.svg">
  <metadata
     id="metadata3082">
    <rdf:RDF>
      <cc:Work
         rdf:about="">
        <dc:format>image/svg+xml</dc:format>
        <dc:type
           rdf:resource="http://purl.org/dc/dcmitype/StillImage" />
        <dc:title></dc:title>
      </cc:Work>
    </rdf:RDF>
  </metadata>
  <defs
     id="defs3080" />
  <sodipodi:namedview
     pagecolor="#ffffff"
     bordercolor="#666666"
     borderopacity="1"
     objecttolerance="10"
     gridtolerance="10"
     guidetolerance="10"
     inkscape:pageopacity="0"
     inkscape:pageshadow="2"
     inkscape:window-width="1360"
     inkscape:window-height="702"
     id="namedview3078"
     showgrid="false"
     inkscape:zoom="8"
     inkscape:cx="30.176943"
     inkscape:cy="5.3238511"
     inkscape:window-x="0"
     inkscape:window-y="27"
     inkscape:window-maximized="1"
     inkscape:current-layer="svg3060" />
  <rect
     style="fill:#333333;fill-opacity:1"
     id="rect3084"
     width="46.198738"
     height="46.303761"
     x="-0.62111944"
     y="-0.3893258" />
  <path
     style="opacity:0.1566265;fill:#aea79f;fill-opacity:1;stroke:none"
     d="M 6.8456952,-0.41611587 40.059994,45.928239 -0.6381439,45.925963 -0.66555367,-0.36857679 z"
     id="path3854"
     inkscape:connector-curvature="0"
     sodipodi:nodetypes="ccccc" />
  <g
     style="opacity:1; fill:#ffffff; fill-opacity:1; fill-rule:evenodd; stroke:#000000; stroke-width:1.5; stroke-linecap:round;stroke-linejoin:round;stroke-miterlimit:4; stroke-dasharray:none; stroke-opacity:1;"
     id="g3062">
    <path
       d="M 9,39 L 36,39 L 36,36 L 9,36 L 9,39 z "
       style="stroke-linecap:butt;fill:#dddad7;fill-opacity:1;stroke:#1d1d1d;stroke-opacity:1"
       id="path3064" />
    <path
       d="M 12,36 L 12,32 L 33,32 L 33,36 L 12,36 z "
       style="stroke-linecap:butt;fill:#aea79f;fill-opacity:1;stroke:#1d1d1d;stroke-opacity:1"
       id="path3066" />
    <path
       d="M 11,14 L 11,9 L 15,9 L 15,11 L 20,11 L 20,9 L 25,9 L 25,11 L 30,11 L 30,9 L 34,9 L 34,14"
       style="stroke-linecap:butt;fill:#aea79f;fill-opacity:1;stroke:#1d1d1d;stroke-opacity:1"
       id="path3068" />
    <path
       d="M 34,14 L 31,17 L 14,17 L 11,14"
       id="path3070"
       style="fill:#dddad7;fill-opacity:1;opacity:1;stroke:#1d1d1d;stroke-opacity:1" />
    <path
       d="M 31,17 L 31,29.5 L 14,29.5 L 14,17"
       style="stroke-linecap:butt;stroke-linejoin:miter;fill:#aea79f;fill-opacity:1;stroke:#1d1d1d;stroke-opacity:1"
       id="path3072" />
    <path
       d="M 31,29.5 L 32.5,32 L 12.5,32 L 14,29.5"
       id="path3074"
       style="fill:#dddad7;fill-opacity:1;stroke:#1d1d1d;stroke-opacity:1" />
    <path
       d="M 11,14 L 34,14"
       style="fill:none;stroke:#1d1d1d;stroke-linejoin:miter;stroke-opacity:1"
       id="path3076" />
  </g>
</svg>
