<?xml version="1.0" encoding="UTF-8"?>
<svg xmlns="http://www.w3.org/2000/svg" xmlns:xlink="http://www.w3.org/1999/xlink" width="256pt" height="256pt" viewBox="0 0 256 256" version="1.1">
<g id="surface1">
<path style="fill-rule:evenodd;fill:rgb(100%,100%,100%);fill-opacity:1;stroke-width:1.5;stroke-linecap:round;stroke-linejoin:round;stroke:rgb(0%,0%,0%);stroke-opacity:1;stroke-miterlimit:4;" d="M 9.000106 13.000502 C 9.000106 14.104628 8.10472 15.000014 6.999908 15.000014 C 5.895782 15.000014 5.000396 14.104628 5.000396 13.000502 C 5.000396 11.895003 5.895782 10.999617 6.999908 10.999617 C 8.10472 10.999617 9.000106 11.895003 9.000106 13.000502 Z M 9.000106 13.000502 " transform="matrix(5.68889,0,0,5.68889,-5.68889,-5.68889)"/>
<path style="fill-rule:evenodd;fill:rgb(100%,100%,100%);fill-opacity:1;stroke-width:1.5;stroke-linecap:round;stroke-linejoin:round;stroke:rgb(0%,0%,0%);stroke-opacity:1;stroke-miterlimit:4;" d="M 8.999511 13.000227 C 8.999511 14.104353 8.104125 14.999739 6.999999 14.999739 C 5.895873 14.999739 5.000488 14.104353 5.000488 13.000227 C 5.000488 11.895415 5.895873 11.000029 6.999999 11.000029 C 8.104125 11.000029 8.999511 11.895415 8.999511 13.000227 Z M 8.999511 13.000227 " transform="matrix(5.68889,0,0,5.68889,88.177778,-31.28889)"/>
<path style="fill-rule:evenodd;fill:rgb(100%,100%,100%);fill-opacity:1;stroke-width:1.5;stroke-linecap:round;stroke-linejoin:round;stroke:rgb(0%,0%,0%);stroke-opacity:1;stroke-miterlimit:4;" d="M 8.999602 13.000502 C 8.999602 14.104628 8.104216 15.000014 7.000091 15.000014 C 5.895278 15.000014 4.999893 14.104628 4.999893 13.000502 C 4.999893 11.895003 5.895278 10.999617 7.000091 10.999617 C 8.104216 10.999617 8.999602 11.895003 8.999602 13.000502 Z M 8.999602 13.000502 " transform="matrix(5.68889,0,0,5.68889,182.044445,-5.68889)"/>
<path style="fill-rule:evenodd;fill:rgb(100%,100%,100%);fill-opacity:1;stroke-width:1.5;stroke-linecap:round;stroke-linejoin:round;stroke:rgb(0%,0%,0%);stroke-opacity:1;stroke-miterlimit:4;" d="M 9.000212 12.999983 C 9.000212 14.104109 8.104827 14.999495 7.000014 14.999495 C 5.895889 14.999495 5.000503 14.104109 5.000503 12.999983 C 5.000503 11.895171 5.895889 10.999785 7.000014 10.999785 C 8.104827 10.999785 9.000212 11.895171 9.000212 12.999983 Z M 9.000212 12.999983 " transform="matrix(5.68889,0,0,5.68889,39.822222,-25.6)"/>
<path style="fill-rule:evenodd;fill:rgb(100%,100%,100%);fill-opacity:1;stroke-width:1.5;stroke-linecap:round;stroke-linejoin:round;stroke:rgb(0%,0%,0%);stroke-opacity:1;stroke-miterlimit:4;" d="M 8.999495 12.999861 C 8.999495 14.103987 8.10411 14.999372 6.999984 14.999372 C 5.895171 14.999372 4.999786 14.103987 4.999786 12.999861 C 4.999786 11.895735 5.895171 11.00035 6.999984 11.00035 C 8.10411 11.00035 8.999495 11.895735 8.999495 12.999861 Z M 8.999495 12.999861 " transform="matrix(5.68889,0,0,5.68889,136.533333,-22.755555)"/>
<path style="fill-rule:evenodd;fill:rgb(100%,100%,100%);fill-opacity:1;stroke-width:1.5;stroke-linecap:butt;stroke-linejoin:round;stroke:rgb(0%,0%,0%);stroke-opacity:1;stroke-miterlimit:4;" d="M 8.999862 26.000516 C 17.499845 24.499509 30.000225 24.499509 36.000133 26.000516 L 37.999644 14.000014 L 30.999981 25.00076 L 30.999981 10.999373 L 25.500638 24.499509 L 22.499997 9.499739 L 19.499357 24.499509 L 14.000014 10.499495 L 14.000014 25.00076 L 7.00035 14.000014 Z M 8.999862 26.000516 " transform="matrix(5.68889,0,0,5.68889,0,0)"/>
<path style="fill-rule:evenodd;fill:rgb(100%,100%,100%);fill-opacity:1;stroke-width:1.5;stroke-linecap:butt;stroke-linejoin:round;stroke:rgb(0%,0%,0%);stroke-opacity:1;stroke-miterlimit:4;" d="M 8.999862 26.000516 C 8.999862 28.000027 10.499495 28.000027 11.500624 30.000225 C 12.50038 31.499859 12.50038 30.999981 12.000502 33.49937 C 10.499495 34.500499 10.499495 36.000133 10.499495 36.000133 C 8.999862 37.499766 10.999373 38.500209 10.999373 38.500209 C 17.499845 39.499965 27.500149 39.499965 34.000621 38.500209 C 34.000621 38.500209 35.500255 37.499766 34.000621 36.000133 C 34.000621 36.000133 34.500499 34.500499 32.999492 33.49937 C 32.499614 30.999981 32.499614 31.499859 33.49937 30.000225 C 34.500499 28.000027 36.000133 28.000027 36.000133 26.000516 C 27.500149 24.499509 17.499845 24.499509 8.999862 26.000516 Z M 8.999862 26.000516 " transform="matrix(5.68889,0,0,5.68889,0,0)"/>
<path style="fill:none;stroke-width:1.5;stroke-linecap:round;stroke-linejoin:round;stroke:rgb(0%,0%,0%);stroke-opacity:1;stroke-miterlimit:4;" d="M 11.500624 30.000225 C 14.999769 28.999783 30.000225 28.999783 33.49937 30.000225 " transform="matrix(5.68889,0,0,5.68889,0,0)"/>
<path style="fill:none;stroke-width:1.5;stroke-linecap:round;stroke-linejoin:round;stroke:rgb(0%,0%,0%);stroke-opacity:1;stroke-miterlimit:4;" d="M 12.000502 33.49937 C 17.999723 32.499614 27.000271 32.499614 32.999492 33.49937 " transform="matrix(5.68889,0,0,5.68889,0,0)"/>
</g>
</svg>
