<?xml version="1.0" encoding="UTF-8" standalone="no"?>
<svg
   xmlns:dc="http://purl.org/dc/elements/1.1/"
   xmlns:cc="http://creativecommons.org/ns#"
   xmlns:rdf="http://www.w3.org/1999/02/22-rdf-syntax-ns#"
   xmlns:svg="http://www.w3.org/2000/svg"
   xmlns="http://www.w3.org/2000/svg"
   xmlns:sodipodi="http://sodipodi.sourceforge.net/DTD/sodipodi-0.dtd"
   xmlns:inkscape="http://www.inkscape.org/namespaces/inkscape"
   width="256pt"
   height="256pt"
   viewBox="0 0 256 256"
   version="1.1"
   id="svg2"
   inkscape:version="0.48.4 r9939"
   sodipodi:docname="Chess_rdt45.svg">
  <metadata
     id="metadata31">
    <rdf:RDF>
      <cc:Work
         rdf:about="">
        <dc:format>image/svg+xml</dc:format>
        <dc:type
           rdf:resource="http://purl.org/dc/dcmitype/StillImage" />
      </cc:Work>
    </rdf:RDF>
  </metadata>
  <defs
     id="defs29" />
  <sodipodi:namedview
     pagecolor="#ffffff"
     bordercolor="#666666"
     borderopacity="1"
     objecttolerance="10"
     gridtolerance="10"
     guidetolerance="10"
     inkscape:pageopacity="0"
     inkscape:pageshadow="2"
     inkscape:window-width="1360"
     inkscape:window-height="706"
     id="namedview27"
     showgrid="false"
     inkscape:zoom="2.085965"
     inkscape:cx="143.23049"
     inkscape:cy="148.95374"
     inkscape:window-x="0"
     inkscape:window-y="27"
     inkscape:window-maximized="1"
     inkscape:current-layer="surface1" />
  <g
     id="surface1">
    <path
       inkscape:connector-curvature="0"
       style="fill:#000000;fill-opacity:1;fill-rule:evenodd;stroke:#ffffff;stroke-width:17.73359999999999914;stroke-linecap:butt;stroke-linejoin:round;stroke-miterlimit:4;stroke-opacity:1;stroke-dasharray:none"
       d="m 68.269535,204.8008 0,-22.75782 119.460945,0 0,22.75782 z m 0,0"
       id="path9-1" />
    <path
       inkscape:connector-curvature="0"
       style="fill:#000000;fill-opacity:1;fill-rule:evenodd;stroke:#ffffff;stroke-width:19.01360000000000028;stroke-linecap:butt;stroke-linejoin:round;stroke-miterlimit:4;stroke-opacity:1;stroke-dasharray:none"
       d="m 51.199225,221.8672 153.601575,0 0,-17.0664 -153.601575,0 z m 0,0"
       id="path5-8" />
    <path
       style="fill-rule:evenodd;fill:rgb(0%,0%,0%);fill-opacity:1;stroke-width:1.5;stroke-linecap:butt;stroke-linejoin:round;stroke:rgb(0%,0%,0%);stroke-opacity:1;stroke-miterlimit:4;"
       d="M 8.999862 39.000087 L 36.000133 39.000087 L 36.000133 36.000133 L 8.999862 36.000133 Z M 8.999862 39.000087 "
       transform="matrix(5.68889,0,0,5.68889,0,0)"
       id="path5" />
    <path
       inkscape:connector-curvature="0"
       style="fill:#ffffff;fill-opacity:1;fill-rule:evenodd;stroke:#ffffff;stroke-width:9.15673922999999945;stroke-linecap:butt;stroke-linejoin:miter;stroke-miterlimit:4;stroke-opacity:1"
       d="m 71.847904,167.51253 0,-73.33364 112.304206,0 0,73.33364 z m 0,0"
       id="path11-7" />
    <path
       inkscape:connector-curvature="0"
       style="fill:#000000;fill-opacity:1;fill-rule:evenodd;stroke:#ffffff;stroke-width:17.33360000000000056;stroke-linecap:butt;stroke-linejoin:round;stroke-miterlimit:4;stroke-opacity:1;stroke-dasharray:none"
       d="m 71.113287,182.04298 8.531252,-14.21875 96.710941,0 8.53125,14.21875 z m 0,0"
       id="path7-8" />
    <path
       style="fill-rule:evenodd;fill:rgb(0%,0%,0%);fill-opacity:1;stroke-width:1.5;stroke-linecap:butt;stroke-linejoin:round;stroke:rgb(0%,0%,0%);stroke-opacity:1;stroke-miterlimit:4;"
       d="M 12.50038 31.999737 L 14.000014 29.500347 L 30.999981 29.500347 L 32.499614 31.999737 Z M 12.50038 31.999737 "
       transform="matrix(5.68889,0,0,5.68889,0,0)"
       id="path7" />
    <path
       style="fill-rule:evenodd;fill:rgb(0%,0%,0%);fill-opacity:1;stroke-width:1.5;stroke-linecap:butt;stroke-linejoin:round;stroke:rgb(0%,0%,0%);stroke-opacity:1;stroke-miterlimit:4;"
       d="M 12.000502 36.000133 L 12.000502 31.999737 L 32.999492 31.999737 L 32.999492 36.000133 Z M 12.000502 36.000133 "
       transform="matrix(5.68889,0,0,5.68889,0,0)"
       id="path9" />
    <path
       inkscape:connector-curvature="0"
       style="fill:#000000;fill-opacity:1;fill-rule:evenodd;stroke:#ffffff;stroke-width:18.69359999999999999;stroke-linecap:butt;stroke-linejoin:round;stroke-miterlimit:4;stroke-opacity:1;stroke-dasharray:none"
       d="m 62.574223,79.644542 0,-28.445315 22.757812,0 0,11.374999 28.441415,0 0,-11.374999 28.45312,0 0,11.374999 28.44141,0 0,-11.374999 22.75782,0 0,28.445315 z m 0,0"
       id="path15-1" />
    <path
       style="fill-rule:evenodd;fill:rgb(0%, 0%, 0%);fill-opacity:1;stroke-width:3.53910868000000001;stroke-linecap:butt;stroke-linejoin:round;stroke:#ffffff;stroke-opacity:1;stroke-miterlimit:4;stroke-dasharray:none"
       d="M 14.000014 16.500089 L 10.999373 14.000014 L 34.000621 14.000014 L 30.999981 16.500089 Z M 14.000014 16.500089 "
       id="path13"
       transform="matrix(5.68889,0,0,5.68889,0,0)" />
    <path
       style="fill-rule:evenodd;fill:rgb(0%,0%,0%);fill-opacity:1;stroke-width:1.5;stroke-linecap:butt;stroke-linejoin:miter;stroke:rgb(0%,0%,0%);stroke-opacity:1;stroke-miterlimit:4;"
       d="M 14.000014 29.500347 L 14.000014 16.500089 L 30.999981 16.500089 L 30.999981 29.500347 Z M 14.000014 29.500347 "
       id="path11"
       transform="matrix(5.68889,0,0,5.68889,0,0)" />
    <path
       inkscape:connector-curvature="0"
       style="fill:#000000;fill-opacity:1;fill-rule:evenodd;stroke:#000000;stroke-width:8.53359999999999985;stroke-linecap:butt;stroke-linejoin:round;stroke-miterlimit:4;stroke-opacity:1;stroke-dasharray:none"
       d="m 79.644539,93.867191 -17.070316,-14.222652 130.851577,0 -17.07031,14.222652 z m 0,0"
       id="path13-1" />
    <path
       style="fill-rule:evenodd;fill:rgb(0%,0%,0%);fill-opacity:1;stroke-width:1.5;stroke-linecap:butt;stroke-linejoin:round;stroke:rgb(0%,0%,0%);stroke-opacity:1;stroke-miterlimit:4;"
       d="M 10.999373 14.000014 L 10.999373 8.999862 L 14.999769 8.999862 L 14.999769 10.999373 L 19.999235 10.999373 L 19.999235 8.999862 L 25.00076 8.999862 L 25.00076 10.999373 L 30.000225 10.999373 L 30.000225 8.999862 L 34.000621 8.999862 L 34.000621 14.000014 Z M 10.999373 14.000014 "
       id="path15"
       transform="matrix(5.68889,0,0,5.68889,0,0)" />
    <path
       style="fill:none;stroke-width:1;stroke-linecap:round;stroke-linejoin:miter;stroke:rgb(100%,100%,100%);stroke-opacity:1;stroke-miterlimit:4;"
       d="M 12.000502 35.500255 L 32.999492 35.500255 "
       transform="matrix(5.68889,0,0,5.68889,0,0)"
       id="path17" />
    <path
       style="fill:none;stroke-width:1;stroke-linecap:round;stroke-linejoin:miter;stroke:rgb(100%,100%,100%);stroke-opacity:1;stroke-miterlimit:4;"
       d="M 13.000258 31.499859 L 31.999737 31.499859 "
       transform="matrix(5.68889,0,0,5.68889,0,0)"
       id="path19" />
    <path
       style="fill:none;stroke-width:1;stroke-linecap:round;stroke-linejoin:miter;stroke:rgb(100%,100%,100%);stroke-opacity:1;stroke-miterlimit:4;"
       d="M 14.000014 29.500347 L 30.999981 29.500347 "
       transform="matrix(5.68889,0,0,5.68889,0,0)"
       id="path21" />
    <path
       style="fill:none;stroke-width:1;stroke-linecap:round;stroke-linejoin:miter;stroke:rgb(100%,100%,100%);stroke-opacity:1;stroke-miterlimit:4;"
       d="M 14.000014 16.500089 L 30.999981 16.500089 "
       transform="matrix(5.68889,0,0,5.68889,0,0)"
       id="path23" />
    <path
       style="fill:none;stroke-width:1;stroke-linecap:round;stroke-linejoin:miter;stroke:rgb(100%,100%,100%);stroke-opacity:1;stroke-miterlimit:4;"
       d="M 10.999373 14.000014 L 34.000621 14.000014 "
       transform="matrix(5.68889,0,0,5.68889,0,0)"
       id="path25" />
  </g>
</svg>
