<?xml version="1.0" encoding="UTF-8" standalone="no"?>
<svg
   xmlns:dc="http://purl.org/dc/elements/1.1/"
   xmlns:cc="http://creativecommons.org/ns#"
   xmlns:rdf="http://www.w3.org/1999/02/22-rdf-syntax-ns#"
   xmlns:svg="http://www.w3.org/2000/svg"
   xmlns="http://www.w3.org/2000/svg"
   xmlns:sodipodi="http://sodipodi.sourceforge.net/DTD/sodipodi-0.dtd"
   xmlns:inkscape="http://www.inkscape.org/namespaces/inkscape"
   version="1.1"
   width="256"
   height="256"
   id="svg2"
   inkscape:version="0.48.4 r9939"
   sodipodi:docname="Chess_bdt45.svg">
  <metadata
     id="metadata20">
    <rdf:RDF>
      <cc:Work
         rdf:about="">
        <dc:format>image/svg+xml</dc:format>
        <dc:type
           rdf:resource="http://purl.org/dc/dcmitype/StillImage" />
      </cc:Work>
    </rdf:RDF>
  </metadata>
  <defs
     id="defs18" />
  <sodipodi:namedview
     pagecolor="#ffffff"
     bordercolor="#666666"
     borderopacity="1"
     objecttolerance="10"
     gridtolerance="10"
     guidetolerance="10"
     inkscape:pageopacity="0"
     inkscape:pageshadow="2"
     inkscape:window-width="1360"
     inkscape:window-height="706"
     id="namedview16"
     showgrid="false"
     inkscape:zoom="1.3111111"
     inkscape:cx="5.9259875"
     inkscape:cy="93.389192"
     inkscape:window-x="0"
     inkscape:window-y="27"
     inkscape:window-maximized="1"
     inkscape:current-layer="svg2" />
  <g
     id="g3946"
     transform="matrix(5.6793478,0,0,5.668324,-0.28532623,-11.441054)">
    <path
       transform="translate(-0.15138626,0.40448905)"
       d="m 27.235596,7.6521778 c 0,2.5317892 -2.052421,4.5842092 -4.58421,4.5842092 -2.531789,0 -4.584209,-2.05242 -4.584209,-4.5842092 0,-2.531789 2.05242,-4.5842094 4.584209,-4.5842094 2.531789,0 4.58421,2.0524204 4.58421,4.5842094 z"
       sodipodi:ry="4.5842094"
       sodipodi:rx="4.5842094"
       sodipodi:cy="7.6521778"
       sodipodi:cx="22.651386"
       id="path3046"
       style="color:#000000;fill:#ffffff;fill-opacity:1;fill-rule:nonzero;stroke:none;stroke-width:15;marker:none;visibility:visible;display:inline;overflow:visible;enable-background:accumulate"
       sodipodi:type="arc" />
    <g
       id="g4"
       style="fill:none;stroke:#000000;stroke-width:1.5;stroke-linecap:round;stroke-linejoin:round;stroke-miterlimit:4;stroke-opacity:1;stroke-dasharray:none">
      <path
         id="path8-2"
         d="m 9,36 c 3.39,-0.97 10.11,0.43 13.5,-2 3.39,2.43 10.11,1.03 13.5,2 0,0 1.65,0.54 3,2 -0.68,0.97 -1.65,0.99 -3,0.5 -3.39,-0.97 -10.11,0.46 -13.5,-1 C 19.11,38.96 12.39,37.53 9,38.5 7.646,38.99 6.677,38.97 6,38 7.354,36.06 9,36 9,36 z"
         style="fill:#ff2323;fill-opacity:1;fill-rule:evenodd;stroke:#ffffff;stroke-width:3.79999995;stroke-linecap:butt;stroke-linejoin:round;stroke-miterlimit:4;stroke-opacity:1;stroke-dasharray:none"
         inkscape:connector-curvature="0" />
      <g
         id="g6"
         style="fill:#000000;stroke:#000000;stroke-linecap:butt">
        <path
           inkscape:connector-curvature="0"
           style="fill:none;stroke:#ffffff;stroke-width:4.0999999;stroke-miterlimit:4;stroke-opacity:1;stroke-dasharray:none"
           id="path10"
           d="m 14.740435,32.339598 c 2.586522,2.586521 12.932608,2.586521 15.51913,0 0.517305,-1.551913 0,-2.069218 0,-2.069218 0,-2.586521 -2.586522,-4.138434 -2.586522,-4.138434 5.690348,-1.551913 6.207653,-11.898 -5.173043,-16.036435 -11.380696,4.138435 -10.863391,14.484522 -5.173043,16.036435 0,0 -2.586522,1.551913 -2.586522,4.138434 0,0 -0.517305,0.517305 0,2.069218 z" />
        <path
           id="path8"
           d="m 9,36 c 3.39,-0.97 10.11,0.43 13.5,-2 3.39,2.43 10.11,1.03 13.5,2 0,0 1.65,0.54 3,2 -0.68,0.97 -1.65,0.99 -3,0.5 -3.39,-0.97 -10.11,0.46 -13.5,-1 C 19.11,38.96 12.39,37.53 9,38.5 7.646,38.99 6.677,38.97 6,38 7.354,36.06 9,36 9,36 z"
           inkscape:connector-curvature="0" />
        <path
           id="path10-1"
           d="m 14.390218,32.797799 c 2.70326,2.703261 13.516304,2.703261 16.219564,0 0.540653,-1.621957 0,-2.162609 0,-2.162609 0,-2.703261 -2.70326,-4.325217 -2.70326,-4.325217 C 33.853695,24.688016 34.394348,13.874973 22.5,9.5497552 10.605652,13.874973 11.146305,24.688016 17.093478,26.309973 c 0,0 -2.70326,1.621956 -2.70326,4.325217 0,0 -0.540653,0.540652 0,2.162609 z"
           style="fill:#000000;fill-opacity:1;fill-rule:evenodd;stroke:none"
           inkscape:connector-curvature="0" />
        <path
           id="path12"
           d="m 25,8 a 2.5,2.5 0 1 1 -5,0 2.5,2.5 0 1 1 5,0 z"
           inkscape:connector-curvature="0" />
      </g>
      <path
         id="path14"
         style="fill:none;stroke:#ffffff;stroke-linejoin:miter"
         d="m 17.5,26 10,0 M 15,30 30,30 m -7.5,-14.5 0,5 M 20,18 l 5,0"
         inkscape:connector-curvature="0" />
    </g>
  </g>
</svg>
