<?xml version="1.0" encoding="UTF-8"?>
<svg xmlns="http://www.w3.org/2000/svg" xmlns:xlink="http://www.w3.org/1999/xlink" width="256pt" height="256pt" viewBox="0 0 256 256" version="1.1">
<g id="surface1">
<path style="fill-rule:evenodd;fill:rgb(0%,0%,0%);fill-opacity:1;stroke-width:4.4;stroke-linecap:round;stroke-linejoin:round;stroke:rgb(100%,100%,100%);stroke-opacity:1;stroke-miterlimit:4;" d="M 22.000119 9.999617 C 32.499614 10.999373 38.500209 17.999723 37.999644 39.000087 L 14.999769 39.000087 C 14.999769 30.000225 25.00076 32.499614 22.999875 17.999723 " transform="matrix(5.68889,0,0,5.68889,0,0)"/>
<path style="fill-rule:evenodd;fill:rgb(0%,0%,0%);fill-opacity:1;stroke-width:4.1;stroke-linecap:round;stroke-linejoin:round;stroke:rgb(100%,100%,100%);stroke-opacity:1;stroke-miterlimit:4;" d="M 23.999631 17.999723 C 24.380032 20.910413 18.450162 25.369488 16.000212 27.000271 C 13.000258 28.999783 13.180159 31.33987 10.999373 30.999981 C 9.957732 30.059963 12.410429 27.960202 10.999373 28.000027 C 9.999617 28.000027 11.189574 29.230496 9.999617 30.000225 C 8.999862 30.000225 5.997161 30.999981 5.999908 26.000516 C 5.999908 23.999631 12.000502 14.000014 12.000502 14.000014 C 12.000502 14.000014 13.89015 12.100066 14.000014 10.499495 C 13.270109 9.506606 13.500136 8.499984 13.500136 7.500228 C 14.499891 6.499786 16.500089 9.999617 16.500089 9.999617 L 18.499601 9.999617 C 18.499601 9.999617 19.27963 8.007659 21.000364 7.00035 C 22.000119 7.00035 22.000119 9.999617 22.000119 9.999617 " transform="matrix(5.68889,0,0,5.68889,0,0)"/>
<path style="fill-rule:evenodd;fill:rgb(0%,0%,0%);fill-opacity:1;stroke-width:1.5;stroke-linecap:round;stroke-linejoin:round;stroke:rgb(0%,0%,0%);stroke-opacity:1;stroke-miterlimit:4;" d="M 22.000119 9.999617 C 32.499614 10.999373 38.500209 17.999723 37.999644 39.000087 L 14.999769 39.000087 C 14.999769 30.000225 25.00076 32.499614 22.999875 17.999723 " transform="matrix(5.68889,0,0,5.68889,0,0)"/>
<path style="fill-rule:evenodd;fill:rgb(0%,0%,0%);fill-opacity:1;stroke-width:1.5;stroke-linecap:round;stroke-linejoin:round;stroke:rgb(0%,0%,0%);stroke-opacity:1;stroke-miterlimit:4;" d="M 23.999631 17.999723 C 24.380032 20.910413 18.450162 25.369488 16.000212 27.000271 C 13.000258 28.999783 13.180159 31.33987 10.999373 30.999981 C 9.957732 30.059963 12.410429 27.960202 10.999373 28.000027 C 9.999617 28.000027 11.189574 29.230496 9.999617 30.000225 C 8.999862 30.000225 5.997161 30.999981 5.999908 26.000516 C 5.999908 23.999631 12.000502 14.000014 12.000502 14.000014 C 12.000502 14.000014 13.89015 12.100066 14.000014 10.499495 C 13.270109 9.506606 13.500136 8.499984 13.500136 7.500228 C 14.499891 6.499786 16.500089 9.999617 16.500089 9.999617 L 18.499601 9.999617 C 18.499601 9.999617 19.27963 8.007659 21.000364 7.00035 C 22.000119 7.00035 22.000119 9.999617 22.000119 9.999617 " transform="matrix(5.68889,0,0,5.68889,0,0)"/>
<path style="fill-rule:evenodd;fill:rgb(100%,100%,100%);fill-opacity:1;stroke-width:1.5;stroke-linecap:round;stroke-linejoin:round;stroke:rgb(100%,100%,100%);stroke-opacity:1;stroke-miterlimit:4;" d="M 9.499739 25.500638 C 9.499739 25.775982 9.275893 26.000516 8.999862 26.000516 C 8.724517 26.000516 8.499984 25.775982 8.499984 25.500638 C 8.499984 25.223233 8.724517 25.00076 8.999862 25.00076 C 9.275893 25.00076 9.499739 25.223233 9.499739 25.500638 Z M 9.499739 25.500638 " transform="matrix(5.68889,0,0,5.68889,0,0)"/>
<path style="fill-rule:evenodd;fill:rgb(100%,100%,100%);fill-opacity:1;stroke-width:1.5;stroke-linecap:round;stroke-linejoin:round;stroke:rgb(100%,100%,100%);stroke-opacity:1;stroke-miterlimit:4;" d="M 14.999688 15.500497 C 14.999552 16.328356 14.775911 16.999818 14.500896 17.000024 C 14.224005 16.999727 13.999734 16.328392 13.99987 15.500533 C 14.000257 14.671736 14.223555 13.999679 14.500446 13.999976 C 14.776399 14.000021 14.99948 14.672043 14.999688 15.500497 Z M 14.999688 15.500497 " transform="matrix(4.926578,2.844445,-2.844445,4.926578,55.1424,-29.428622)"/>
<path style=" stroke:none;fill-rule:evenodd;fill:rgb(100%,100%,100%);fill-opacity:1;" d="M 139.664062 59.164062 L 137.101562 67.414062 L 139.945312 68.269531 C 157.867188 73.957031 172.085938 82.429688 184.886719 106.667969 C 197.6875 130.898438 203.375 165.320312 200.53125 221.867188 L 200.25 224.710938 L 213.050781 224.710938 L 213.332031 221.867188 C 216.175781 164.636719 208.324219 126.007812 194.84375 100.46875 C 181.363281 74.925781 161.90625 62.695312 142.5625 59.730469 Z M 139.664062 59.164062 "/>
</g>
</svg>
