<?xml version="1.0" encoding="UTF-8"?>
<svg xmlns="http://www.w3.org/2000/svg" xmlns:xlink="http://www.w3.org/1999/xlink" width="256pt" height="256pt" viewBox="0 0 256 256" version="1.1">
<g id="surface1">
<path style="fill-rule:nonzero;fill:rgb(100%,100%,100%);fill-opacity:1;stroke-width:1.5;stroke-linecap:butt;stroke-linejoin:round;stroke:rgb(0%,0%,0%);stroke-opacity:1;stroke-miterlimit:4;" d="M 9.000276 36.000029 C 12.390211 35.029558 19.110068 36.430384 22.500003 33.999864 C 25.889938 36.430384 32.609795 35.029558 35.99973 36.000029 C 35.99973 36.000029 37.650083 36.540144 39.000372 37.999403 C 38.3197 38.969874 37.350019 38.990405 35.99973 38.500037 C 32.609795 37.529566 25.889938 38.959609 22.500003 37.49956 C 19.110068 38.959609 12.390211 37.529566 9.000276 38.500037 C 7.646039 38.990405 6.677148 38.969874 5.999635 37.999403 C 7.353871 36.060041 9.000276 36.000029 9.000276 36.000029 Z M 9.000276 36.000029 " transform="matrix(4.946859,0,0,4.946859,16.695653,18.38949)"/>
<path style="fill-rule:nonzero;fill:rgb(100%,100%,100%);fill-opacity:1;stroke-width:1.5;stroke-linecap:butt;stroke-linejoin:round;stroke:rgb(0%,0%,0%);stroke-opacity:1;stroke-miterlimit:4;" d="M 14.999979 31.9997 C 17.500777 34.499708 27.499229 34.499708 30.000027 31.9997 C 30.499871 30.500169 30.000027 29.999536 30.000027 29.999536 C 30.000027 27.500317 27.499229 25.999997 27.499229 25.999997 C 33.000668 24.499676 33.499722 14.499644 22.500003 10.500105 C 11.500284 14.499644 11.999338 24.499676 17.500777 25.999997 C 17.500777 25.999997 14.999979 27.500317 14.999979 29.999536 C 14.999979 29.999536 14.500135 30.500169 14.999979 31.9997 Z M 14.999979 31.9997 " transform="matrix(4.946859,0,0,4.946859,16.695653,18.38949)"/>
<path style="fill-rule:nonzero;fill:rgb(100%,100%,100%);fill-opacity:1;stroke-width:1.5;stroke-linecap:butt;stroke-linejoin:round;stroke:rgb(0%,0%,0%);stroke-opacity:1;stroke-miterlimit:4;" d="M 25.000011 7.999307 C 25.000011 9.380392 23.881088 10.500105 22.500003 10.500105 C 21.118918 10.500105 19.999995 9.380392 19.999995 7.999307 C 19.999995 6.619013 21.118918 5.500879 22.500003 5.500879 C 23.881088 5.500879 25.000011 6.619013 25.000011 7.999307 Z M 25.000011 7.999307 " transform="matrix(4.946859,0,0,4.946859,16.695653,18.38949)"/>
<path style="fill:none;stroke-width:1.5;stroke-linecap:round;stroke-linejoin:miter;stroke:rgb(0%,0%,0%);stroke-opacity:1;stroke-miterlimit:4;" d="M 17.500777 25.999997 L 27.499229 25.999997 M 14.999979 29.999536 L 30.000027 29.999536 M 22.500003 15.500911 L 22.500003 20.500137 M 19.999995 17.999339 L 25.000011 17.999339 " transform="matrix(4.946859,0,0,4.946859,16.695653,18.38949)"/>
</g>
</svg>
