<?xml version="1.0" encoding="UTF-8"?>
<svg xmlns="http://www.w3.org/2000/svg" xmlns:xlink="http://www.w3.org/1999/xlink" width="256pt" height="256pt" viewBox="0 0 256 256" version="1.1">
<g id="surface1">
<path style="fill-rule:evenodd;fill:rgb(100%,100%,100%);fill-opacity:1;stroke-width:1.5;stroke-linecap:butt;stroke-linejoin:round;stroke:rgb(0%,0%,0%);stroke-opacity:1;stroke-miterlimit:4;" d="M 8.999862 39.000087 L 36.000133 39.000087 L 36.000133 36.000133 L 8.999862 36.000133 Z M 8.999862 39.000087 " transform="matrix(5.68889,0,0,5.68889,0,0)"/>
<path style="fill-rule:evenodd;fill:rgb(100%,100%,100%);fill-opacity:1;stroke-width:1.5;stroke-linecap:butt;stroke-linejoin:round;stroke:rgb(0%,0%,0%);stroke-opacity:1;stroke-miterlimit:4;" d="M 12.000502 36.000133 L 12.000502 31.999737 L 32.999492 31.999737 L 32.999492 36.000133 Z M 12.000502 36.000133 " transform="matrix(5.68889,0,0,5.68889,0,0)"/>
<path style="fill-rule:evenodd;fill:rgb(100%,100%,100%);fill-opacity:1;stroke-width:1.5;stroke-linecap:butt;stroke-linejoin:round;stroke:rgb(0%,0%,0%);stroke-opacity:1;stroke-miterlimit:4;" d="M 10.999373 14.000014 L 10.999373 8.999862 L 14.999769 8.999862 L 14.999769 10.999373 L 19.999235 10.999373 L 19.999235 8.999862 L 25.00076 8.999862 L 25.00076 10.999373 L 30.000225 10.999373 L 30.000225 8.999862 L 34.000621 8.999862 L 34.000621 14.000014 " transform="matrix(5.68889,0,0,5.68889,0,0)"/>
<path style="fill-rule:evenodd;fill:rgb(100%,100%,100%);fill-opacity:1;stroke-width:1.5;stroke-linecap:round;stroke-linejoin:round;stroke:rgb(0%,0%,0%);stroke-opacity:1;stroke-miterlimit:4;" d="M 34.000621 14.000014 L 30.999981 16.999967 L 14.000014 16.999967 L 10.999373 14.000014 " transform="matrix(5.68889,0,0,5.68889,0,0)"/>
<path style="fill-rule:evenodd;fill:rgb(100%,100%,100%);fill-opacity:1;stroke-width:1.5;stroke-linecap:butt;stroke-linejoin:miter;stroke:rgb(0%,0%,0%);stroke-opacity:1;stroke-miterlimit:4;" d="M 30.999981 16.999967 L 30.999981 29.500347 L 14.000014 29.500347 L 14.000014 16.999967 " transform="matrix(5.68889,0,0,5.68889,0,0)"/>
<path style="fill-rule:evenodd;fill:rgb(100%,100%,100%);fill-opacity:1;stroke-width:1.5;stroke-linecap:round;stroke-linejoin:round;stroke:rgb(0%,0%,0%);stroke-opacity:1;stroke-miterlimit:4;" d="M 30.999981 29.500347 L 32.499614 31.999737 L 12.50038 31.999737 L 14.000014 29.500347 " transform="matrix(5.68889,0,0,5.68889,0,0)"/>
<path style="fill:none;stroke-width:1.5;stroke-linecap:round;stroke-linejoin:miter;stroke:rgb(0%,0%,0%);stroke-opacity:1;stroke-miterlimit:4;" d="M 10.999373 14.000014 L 34.000621 14.000014 " transform="matrix(5.68889,0,0,5.68889,0,0)"/>
</g>
</svg>
