<?xml version="1.0" encoding="UTF-8" standalone="no"?>
<svg
   xmlns:dc="http://purl.org/dc/elements/1.1/"
   xmlns:cc="http://creativecommons.org/ns#"
   xmlns:rdf="http://www.w3.org/1999/02/22-rdf-syntax-ns#"
   xmlns:svg="http://www.w3.org/2000/svg"
   xmlns="http://www.w3.org/2000/svg"
   xmlns:sodipodi="http://sodipodi.sourceforge.net/DTD/sodipodi-0.dtd"
   xmlns:inkscape="http://www.inkscape.org/namespaces/inkscape"
   width="256pt"
   height="256pt"
   viewBox="0 0 256 256"
   version="1.1"
   id="svg2"
   inkscape:version="0.48.4 r9939"
   sodipodi:docname="Chess_pdt45.svg">
  <metadata
     id="metadata15">
    <rdf:RDF>
      <cc:Work
         rdf:about="">
        <dc:format>image/svg+xml</dc:format>
        <dc:type
           rdf:resource="http://purl.org/dc/dcmitype/StillImage" />
      </cc:Work>
    </rdf:RDF>
  </metadata>
  <defs
     id="defs13" />
  <sodipodi:namedview
     pagecolor="#ffffff"
     bordercolor="#666666"
     borderopacity="1"
     objecttolerance="10"
     gridtolerance="10"
     guidetolerance="10"
     inkscape:pageopacity="0"
     inkscape:pageshadow="2"
     inkscape:window-width="1360"
     inkscape:window-height="706"
     id="namedview11"
     showgrid="false"
     inkscape:zoom="2.085965"
     inkscape:cx="101.33606"
     inkscape:cy="137.21586"
     inkscape:window-x="0"
     inkscape:window-y="27"
     inkscape:window-maximized="1"
     inkscape:current-layer="surface1" />
  <g
     id="surface1">
    <path
       inkscape:connector-curvature="0"
       style="fill:#000000;fill-opacity:1;fill-rule:nonzero;stroke:#ffffff;stroke-width:25.25359999999999872;stroke-linecap:round;stroke-linejoin:miter;stroke-miterlimit:4;stroke-opacity:1;stroke-dasharray:none"
       d="m 125.15626,51.199227 c -12.57422,0 -22.75782,10.183591 -22.75782,22.757813 0,5.062498 1.65235,9.722654 4.4375,13.535155 -11.093747,6.374999 -18.660153,18.265625 -18.660153,31.976565 0,11.54297 5.34766,21.84375 13.710943,28.61328 -17.066409,6.03126 -42.156258,31.57422 -42.156258,76.62892 l 130.843748,0 c 0,-45.0547 -25.08593,-70.59766 -42.14843,-76.62892 8.36328,-6.76953 13.70703,-17.07031 13.70703,-28.61328 0,-13.71094 -7.5625,-25.601566 -18.65625,-31.976565 2.78516,-3.812501 4.43751,-8.472657 4.43751,-13.535155 0,-12.574222 -10.18751,-22.757813 -22.75782,-22.757813 z m 0,0"
       id="path5-3" />
    <path
       style="fill-rule:nonzero;fill:rgb(0%, 0%, 0%);fill-opacity:1;stroke-width:1.50000000000000000;stroke-linecap:round;stroke-linejoin:miter;stroke:#000000;stroke-opacity:1;stroke-miterlimit:4"
       d="M 22.000119 8.999862 C 19.789808 8.999862 17.999723 10.789946 17.999723 13.000258 C 17.999723 13.89015 18.290174 14.709318 18.779752 15.379484 C 16.829679 16.500089 15.499647 18.590238 15.499647 21.000364 C 15.499647 23.029401 16.439665 24.840085 17.909773 26.030041 C 14.909819 27.090222 10.499495 31.580196 10.499495 39.499965 L 33.49937 39.499965 C 33.49937 31.580196 29.089733 27.090222 26.090466 26.030041 C 27.560574 24.840085 28.499905 23.029401 28.499905 21.000364 C 28.499905 18.590238 27.170559 16.500089 25.220486 15.379484 C 25.710065 14.709318 26.000516 13.89015 26.000516 13.000258 C 26.000516 10.789946 24.209744 8.999862 22.000119 8.999862 Z M 22.000119 8.999862 "
       id="path5"
       transform="matrix(5.68889,0,0,5.68889,0,0)" />
    <path
       style="fill:none;stroke-width:1;stroke-linecap:butt;stroke-linejoin:miter;stroke:rgb(100%,100%,100%);stroke-opacity:1;stroke-miterlimit:4;"
       d="M 15.961759 25.816495 C 19.254911 29.161144 24.003751 29.709087 27.921749 25.951764 "
       transform="matrix(5.68889,0,0,5.68889,0,0)"
       id="path7" />
    <path
       style="fill:none;stroke-width:0.686051;stroke-linecap:butt;stroke-linejoin:miter;stroke:rgb(100%,100%,100%);stroke-opacity:1;stroke-miterlimit:4;"
       d="M 17.325437 15.115812 C 19.519269 18.888929 24.535901 18.733747 26.72424 14.913939 "
       transform="matrix(5.68889,0,0,5.68889,0,0)"
       id="path9" />
  </g>
</svg>
