<?xml version="1.0" encoding="UTF-8"?>
<svg xmlns="http://www.w3.org/2000/svg" xmlns:xlink="http://www.w3.org/1999/xlink" width="256pt" height="256pt" viewBox="0 0 256 256" version="1.1">
<g id="surface1">
<path style="fill:none;stroke-width:1.5;stroke-linecap:round;stroke-linejoin:miter;stroke:rgb(0%,0%,0%);stroke-opacity:1;stroke-miterlimit:4;" d="M 22.499997 11.6304 L 22.499997 5.999908 " transform="matrix(5.68889,0,0,5.68889,0,0)"/>
<path style="fill-rule:evenodd;fill:rgb(0%,0%,0%);fill-opacity:1;stroke-width:1.5;stroke-linecap:butt;stroke-linejoin:miter;stroke:rgb(0%,0%,0%);stroke-opacity:1;stroke-miterlimit:4;" d="M 22.499997 25.00076 C 22.499997 25.00076 27.000271 17.499845 25.500638 14.499891 C 25.500638 14.499891 24.499509 12.000502 22.499997 12.000502 C 20.500486 12.000502 19.499357 14.499891 19.499357 14.499891 C 17.999723 17.499845 22.499997 25.00076 22.499997 25.00076 " transform="matrix(5.68889,0,0,5.68889,0,0)"/>
<path style="fill-rule:evenodd;fill:rgb(0%,0%,0%);fill-opacity:1;stroke-width:1.5;stroke-linecap:round;stroke-linejoin:round;stroke:rgb(0%,0%,0%);stroke-opacity:1;stroke-miterlimit:4;" d="M 11.500624 36.999889 C 16.999967 40.49972 27.000271 40.49972 32.499614 36.999889 L 32.499614 30.000225 C 32.499614 30.000225 41.499476 25.500638 38.500209 19.499357 C 34.500499 13.000258 25.00076 16.000212 22.499997 23.499753 L 22.499997 27.000271 L 22.499997 23.499753 C 18.999479 16.000212 9.499739 13.000258 6.499786 19.499357 C 3.500518 25.500638 11.500624 29.500347 11.500624 29.500347 Z M 11.500624 36.999889 " transform="matrix(5.68889,0,0,5.68889,0,0)"/>
<path style="fill:none;stroke-width:1.5;stroke-linecap:round;stroke-linejoin:miter;stroke:rgb(0%,0%,0%);stroke-opacity:1;stroke-miterlimit:4;" d="M 19.999235 8.000106 L 25.00076 8.000106 " transform="matrix(5.68889,0,0,5.68889,0,0)"/>
<path style="fill:none;stroke-width:1.5;stroke-linecap:round;stroke-linejoin:round;stroke:rgb(100%,100%,100%);stroke-opacity:1;stroke-miterlimit:4;" d="M 31.999737 29.500347 C 31.999737 29.500347 40.49972 25.500638 38.030543 19.850233 C 34.149623 14.000014 25.00076 17.999723 22.499997 24.499509 L 22.50961 26.599957 L 22.499997 24.499509 C 19.999235 17.999723 9.906234 14.000014 6.996917 19.850233 C 4.500274 25.500638 11.850127 28.850094 11.850127 28.850094 " transform="matrix(5.68889,0,0,5.68889,0,0)"/>
<path style="fill:none;stroke-width:1.5;stroke-linecap:round;stroke-linejoin:round;stroke:rgb(100%,100%,100%);stroke-opacity:1;stroke-miterlimit:4;" d="M 11.500624 30.000225 C 16.999967 27.000271 27.000271 27.000271 32.499614 30.000225 M 11.500624 33.49937 C 16.999967 30.500103 27.000271 30.500103 32.499614 33.49937 M 11.500624 36.999889 C 16.999967 34.000621 27.000271 34.000621 32.499614 36.999889 " transform="matrix(5.68889,0,0,5.68889,0,0)"/>
</g>
</svg>
