<?xml version="1.0" encoding="UTF-8"?>
<svg xmlns="http://www.w3.org/2000/svg" xmlns:xlink="http://www.w3.org/1999/xlink" width="256pt" height="256pt" viewBox="0 0 256 256" version="1.1">
<g id="surface1">
<path style="fill-rule:evenodd;fill:rgb(0%,0%,0%);fill-opacity:1;stroke-width:5.3;stroke-linecap:butt;stroke-linejoin:round;stroke:rgb(100%,100%,100%);stroke-opacity:1;stroke-miterlimit:4;" d="M 8.999862 26.000516 C 17.499845 24.499509 30.000225 24.499509 36.000133 26.000516 L 38.500209 13.500136 L 30.999981 25.00076 L 30.699917 10.899809 L 25.500638 24.499509 L 22.499997 9.999617 L 19.499357 24.499509 L 14.300078 10.899809 L 14.000014 25.00076 L 6.499786 13.500136 Z M 8.999862 26.000516 " transform="matrix(5.68889,0,0,5.68889,0,0)"/>
<path style="fill-rule:evenodd;fill:rgb(10.196078%,10.196078%,10.196078%);fill-opacity:1;stroke-width:5;stroke-linecap:butt;stroke-linejoin:round;stroke:rgb(100%,100%,100%);stroke-opacity:1;stroke-miterlimit:4;" d="M 8.999862 26.000516 C 8.999862 28.000027 10.499495 28.000027 11.500624 30.000225 C 12.50038 31.499859 12.50038 30.999981 12.000502 33.49937 C 10.499495 34.500499 10.499495 36.000133 10.499495 36.000133 C 8.999862 37.499766 10.999373 38.500209 10.999373 38.500209 C 17.499845 39.499965 27.500149 39.499965 34.000621 38.500209 C 34.000621 38.500209 35.500255 37.499766 34.000621 36.000133 C 34.000621 36.000133 34.500499 34.500499 32.999492 33.49937 C 32.499614 30.999981 32.499614 31.499859 33.49937 30.000225 C 34.500499 28.000027 36.000133 28.000027 36.000133 26.000516 C 27.500149 24.499509 17.499845 24.499509 8.999862 26.000516 Z M 8.999862 26.000516 " transform="matrix(5.68889,0,0,5.68889,0,0)"/>
<path style="fill-rule:evenodd;fill:rgb(10.196078%,10.196078%,10.196078%);fill-opacity:1;stroke-width:5;stroke-linecap:butt;stroke-linejoin:round;stroke:rgb(100%,100%,100%);stroke-opacity:1;stroke-miterlimit:4;" d="M 10.999373 38.500209 C 18.448103 41.090922 26.551892 41.090922 34.000621 38.500209 " transform="matrix(5.68889,0,0,5.68889,0,0)"/>
<path style="fill-rule:evenodd;fill:rgb(0%,0%,0%);fill-opacity:1;stroke-width:2.7;stroke-linecap:round;stroke-linejoin:round;stroke:rgb(100%,100%,100%);stroke-opacity:1;stroke-miterlimit:4;" d="M 8.749236 12.000502 C 8.749236 13.518675 7.518767 14.750517 5.999908 14.750517 C 4.481048 14.750517 3.249893 13.518675 3.249893 12.000502 C 3.249893 10.480956 4.481048 9.250487 5.999908 9.250487 C 7.518767 9.250487 8.749236 10.480956 8.749236 12.000502 Z M 8.749236 12.000502 " transform="matrix(5.68889,0,0,5.68889,0,0)"/>
<path style="fill-rule:evenodd;fill:rgb(0%,0%,0%);fill-opacity:1;stroke-width:2.7;stroke-linecap:round;stroke-linejoin:round;stroke:rgb(100%,100%,100%);stroke-opacity:1;stroke-miterlimit:4;" d="M 16.750028 8.999862 C 16.750028 10.518035 15.51956 11.749876 14.000014 11.749876 C 12.48184 11.749876 11.249999 10.518035 11.249999 8.999862 C 11.249999 7.481689 12.48184 6.249847 14.000014 6.249847 C 15.51956 6.249847 16.750028 7.481689 16.750028 8.999862 Z M 16.750028 8.999862 " transform="matrix(5.68889,0,0,5.68889,0,0)"/>
<path style="fill-rule:evenodd;fill:rgb(0%,0%,0%);fill-opacity:1;stroke-width:2.7;stroke-linecap:round;stroke-linejoin:round;stroke:rgb(100%,100%,100%);stroke-opacity:1;stroke-miterlimit:4;" d="M 25.250012 8.000106 C 25.250012 9.518279 24.01817 10.750121 22.499997 10.750121 C 20.981824 10.750121 19.749982 9.518279 19.749982 8.000106 C 19.749982 6.480559 20.981824 5.250091 22.499997 5.250091 C 24.01817 5.250091 25.250012 6.480559 25.250012 8.000106 Z M 25.250012 8.000106 " transform="matrix(5.68889,0,0,5.68889,0,0)"/>
<path style="fill-rule:evenodd;fill:rgb(0%,0%,0%);fill-opacity:1;stroke-width:2.7;stroke-linecap:round;stroke-linejoin:round;stroke:rgb(100%,100%,100%);stroke-opacity:1;stroke-miterlimit:4;" d="M 33.749996 8.999862 C 33.749996 10.518035 32.518154 11.749876 30.999981 11.749876 C 29.480435 11.749876 28.249966 10.518035 28.249966 8.999862 C 28.249966 7.481689 29.480435 6.249847 30.999981 6.249847 C 32.518154 6.249847 33.749996 7.481689 33.749996 8.999862 Z M 33.749996 8.999862 " transform="matrix(5.68889,0,0,5.68889,0,0)"/>
<path style="fill-rule:evenodd;fill:rgb(0%,0%,0%);fill-opacity:1;stroke-width:2.7;stroke-linecap:round;stroke-linejoin:round;stroke:rgb(100%,100%,100%);stroke-opacity:1;stroke-miterlimit:4;" d="M 41.750102 12.000502 C 41.750102 13.518675 40.518946 14.750517 39.000087 14.750517 C 37.481227 14.750517 36.250758 13.518675 36.250758 12.000502 C 36.250758 10.480956 37.481227 9.250487 39.000087 9.250487 C 40.518946 9.250487 41.750102 10.480956 41.750102 12.000502 Z M 41.750102 12.000502 " transform="matrix(5.68889,0,0,5.68889,0,0)"/>
<path style=" stroke:none;fill-rule:evenodd;fill:rgb(0%,0%,0%);fill-opacity:1;" d="M 49.773438 68.269531 C 49.773438 76.90625 42.773438 83.914062 34.132812 83.914062 C 25.492188 83.914062 18.488281 76.90625 18.488281 68.269531 C 18.488281 59.625 25.492188 52.625 34.132812 52.625 C 42.773438 52.625 49.773438 59.625 49.773438 68.269531 Z M 49.773438 68.269531 "/>
<path style=" stroke:none;fill-rule:evenodd;fill:rgb(0%,0%,0%);fill-opacity:1;" d="M 95.289062 51.199219 C 95.289062 59.835938 88.289062 66.84375 79.644531 66.84375 C 71.007812 66.84375 64 59.835938 64 51.199219 C 64 42.5625 71.007812 35.554688 79.644531 35.554688 C 88.289062 35.554688 95.289062 42.5625 95.289062 51.199219 Z M 95.289062 51.199219 "/>
<path style=" stroke:none;fill-rule:evenodd;fill:rgb(0%,0%,0%);fill-opacity:1;" d="M 143.644531 45.511719 C 143.644531 54.148438 136.636719 61.15625 128 61.15625 C 119.363281 61.15625 112.355469 54.148438 112.355469 45.511719 C 112.355469 36.867188 119.363281 29.867188 128 29.867188 C 136.636719 29.867188 143.644531 36.867188 143.644531 45.511719 Z M 143.644531 45.511719 "/>
<path style=" stroke:none;fill-rule:evenodd;fill:rgb(0%,0%,0%);fill-opacity:1;" d="M 192 51.199219 C 192 59.835938 184.992188 66.84375 176.355469 66.84375 C 167.710938 66.84375 160.710938 59.835938 160.710938 51.199219 C 160.710938 42.5625 167.710938 35.554688 176.355469 35.554688 C 184.992188 35.554688 192 42.5625 192 51.199219 Z M 192 51.199219 "/>
<path style=" stroke:none;fill-rule:evenodd;fill:rgb(0%,0%,0%);fill-opacity:1;" d="M 237.511719 68.269531 C 237.511719 76.90625 230.507812 83.914062 221.867188 83.914062 C 213.226562 83.914062 206.226562 76.90625 206.226562 68.269531 C 206.226562 59.625 213.226562 52.625 221.867188 52.625 C 230.507812 52.625 237.511719 59.625 237.511719 68.269531 Z M 237.511719 68.269531 "/>
<path style="fill-rule:evenodd;fill:rgb(0%,0%,0%);fill-opacity:1;stroke-width:1.5;stroke-linecap:butt;stroke-linejoin:round;stroke:rgb(0%,0%,0%);stroke-opacity:1;stroke-miterlimit:4;" d="M 8.999862 26.000516 C 17.499845 24.499509 30.000225 24.499509 36.000133 26.000516 L 38.500209 13.500136 L 30.999981 25.00076 L 30.699917 10.899809 L 25.500638 24.499509 L 22.499997 9.999617 L 19.499357 24.499509 L 14.300078 10.899809 L 14.000014 25.00076 L 6.499786 13.500136 Z M 8.999862 26.000516 " transform="matrix(5.68889,0,0,5.68889,0,0)"/>
<path style="fill-rule:evenodd;fill:rgb(0%,0%,0%);fill-opacity:1;stroke-width:1.5;stroke-linecap:butt;stroke-linejoin:round;stroke:rgb(0%,0%,0%);stroke-opacity:1;stroke-miterlimit:4;" d="M 8.999862 26.000516 C 8.999862 28.000027 10.499495 28.000027 11.500624 30.000225 C 12.50038 31.499859 12.50038 30.999981 12.000502 33.49937 C 10.499495 34.500499 10.499495 36.000133 10.499495 36.000133 C 8.999862 37.499766 10.999373 38.500209 10.999373 38.500209 C 17.499845 39.499965 27.500149 39.499965 34.000621 38.500209 C 34.000621 38.500209 35.500255 37.499766 34.000621 36.000133 C 34.000621 36.000133 34.500499 34.500499 32.999492 33.49937 C 32.499614 30.999981 32.499614 31.499859 33.49937 30.000225 C 34.500499 28.000027 36.000133 28.000027 36.000133 26.000516 C 27.500149 24.499509 17.499845 24.499509 8.999862 26.000516 Z M 8.999862 26.000516 " transform="matrix(5.68889,0,0,5.68889,0,0)"/>
<path style="fill:none;stroke-width:1.5;stroke-linecap:butt;stroke-linejoin:round;stroke:rgb(0%,0%,0%);stroke-opacity:1;stroke-miterlimit:4;" d="M 10.999373 38.500209 C 18.448103 41.090922 26.551892 41.090922 34.000621 38.500209 " transform="matrix(5.68889,0,0,5.68889,0,0)"/>
<path style="fill:none;stroke-width:1.5;stroke-linecap:round;stroke-linejoin:round;stroke:rgb(100%,100%,100%);stroke-opacity:1;stroke-miterlimit:4;" d="M 10.999373 28.999783 C 18.448103 26.40907 26.551892 26.40907 34.000621 28.999783 " transform="matrix(5.68889,0,0,5.68889,0,0)"/>
<path style="fill:none;stroke-width:1.5;stroke-linecap:round;stroke-linejoin:round;stroke:rgb(100%,100%,100%);stroke-opacity:1;stroke-miterlimit:4;" d="M 12.50038 31.499859 L 32.499614 31.499859 " transform="matrix(5.68889,0,0,5.68889,0,0)"/>
<path style="fill:none;stroke-width:1.5;stroke-linecap:round;stroke-linejoin:round;stroke:rgb(100%,100%,100%);stroke-opacity:1;stroke-miterlimit:4;" d="M 11.500624 34.500499 C 18.642423 36.864619 26.357571 36.864619 33.49937 34.500499 " transform="matrix(5.68889,0,0,5.68889,0,0)"/>
<path style="fill:none;stroke-width:1.5;stroke-linecap:round;stroke-linejoin:round;stroke:rgb(100%,100%,100%);stroke-opacity:1;stroke-miterlimit:4;" d="M 10.499495 37.499766 C 18.250349 40.328746 26.749646 40.328746 34.500499 37.499766 " transform="matrix(5.68889,0,0,5.68889,0,0)"/>
</g>
</svg>
